<?xml version="1.0" standalone="no"?>
<!DOCTYPE svg PUBLIC "-//W3C//DTD SVG 20010904//EN"
 "http://www.w3.org/TR/2001/REC-SVG-20010904/DTD/svg10.dtd">
<svg version="1.0" xmlns="http://www.w3.org/2000/svg"
 width="2086.000000pt" height="2086.000000pt" viewBox="0 0 2086.000000 2086.000000"
 preserveAspectRatio="xMidYMid meet">
<metadata>
Created by potrace 1.14, written by Peter Selinger 2001-2017
</metadata>
<g transform="translate(0.000000,2086.000000) scale(0.100000,-0.100000)"
fill="#000000" stroke="none">
<path d="M9899 18605 c-2 -1 -67 -6 -144 -9 -132 -7 -201 -11 -305 -21 -86 -8
-165 -16 -195 -19 -16 -3 -58 -7 -92 -11 -34 -3 -70 -7 -80 -9 -37 -7 -99 -16
-143 -21 -50 -6 -47 -6 -215 -35 -66 -11 -133 -22 -150 -25 -16 -3 -50 -10
-75 -15 -25 -5 -57 -12 -73 -14 -15 -3 -35 -7 -45 -10 -9 -3 -28 -7 -42 -10
-414 -77 -1110 -297 -1595 -504 -403 -172 -715 -330 -1080 -545 -250 -147
-745 -478 -835 -558 -9 -8 -43 -34 -75 -58 -71 -53 -316 -249 -330 -265 -5 -6
-39 -36 -75 -66 -183 -155 -531 -490 -715 -690 -111 -121 -164 -181 -295 -335
-23 -27 -52 -61 -63 -75 -39 -46 -262 -335 -279 -361 -13 -21 -24 -26 -50 -24
-18 2 -85 6 -148 10 -164 9 -234 14 -325 20 -120 7 -242 15 -315 20 -36 2
-105 6 -155 10 -49 3 -119 8 -155 10 -36 2 -96 7 -135 10 -38 2 -106 7 -150
11 -44 3 -102 7 -130 9 -27 2 -90 7 -140 10 -114 8 -193 14 -272 20 -35 3 -92
7 -128 10 -36 3 -93 7 -128 10 -34 2 -98 7 -142 10 -44 4 -100 8 -125 10 -24
3 -82 7 -128 10 -46 4 -97 8 -113 10 -16 2 -75 7 -132 11 -56 3 -105 8 -109
11 -5 2 -8 -165 -8 -371 0 -351 1 -375 18 -374 9 0 44 -2 77 -6 33 -4 80 -9
104 -11 40 -4 95 -10 181 -20 19 -2 58 -7 85 -9 28 -3 93 -10 145 -16 52 -6
120 -13 150 -16 30 -2 74 -7 97 -9 23 -3 67 -8 98 -10 30 -3 72 -7 93 -10 20
-3 71 -7 112 -10 41 -3 91 -8 110 -10 19 -3 58 -7 85 -10 28 -2 79 -7 115 -11
36 -3 79 -7 95 -9 17 -2 68 -7 115 -10 47 -4 88 -9 91 -11 3 -2 6 -121 6 -264
1 -144 2 -263 4 -264 2 -2 40 -7 83 -11 43 -4 88 -9 100 -11 11 -2 53 -6 93
-9 40 -4 82 -8 92 -10 11 -2 51 -6 88 -10 37 -3 82 -8 98 -10 17 -2 57 -6 90
-10 101 -9 169 -16 200 -20 17 -2 62 -6 100 -10 39 -3 81 -7 95 -9 14 -3 57
-7 95 -10 39 -4 88 -8 110 -10 22 -3 76 -7 120 -11 44 -3 94 -8 110 -10 17 -2
66 -7 110 -10 44 -3 94 -8 110 -10 17 -3 62 -7 100 -9 39 -3 93 -8 120 -10 51
-5 162 -15 250 -21 101 -8 211 -17 245 -20 19 -2 38 -4 43 -4 4 -1 7 -71 7
-156 l0 -156 -52 5 c-29 3 -89 8 -133 11 -44 3 -102 8 -130 10 -27 2 -81 7
-120 11 -38 3 -90 7 -115 9 -25 2 -79 7 -120 11 -41 4 -88 8 -105 9 -108 9
-194 17 -220 20 -16 2 -66 7 -110 10 -44 3 -91 8 -105 10 -14 2 -59 6 -100 10
-41 3 -86 7 -100 9 -14 3 -65 7 -115 11 -49 4 -92 8 -95 10 -3 2 -46 6 -95 9
-50 4 -97 8 -105 11 -8 2 -49 6 -91 10 -42 3 -87 8 -100 10 -13 2 -55 6 -94
10 -38 4 -72 8 -75 10 -3 2 -11 1 -17 -3 -13 -9 -165 -364 -241 -567 -51 -135
-158 -447 -166 -480 -1 -5 -14 -48 -28 -95 -15 -47 -34 -112 -43 -145 -23 -84
-66 -247 -71 -267 -2 -10 -6 -26 -8 -35 -49 -201 -121 -542 -130 -618 -2 -22
-5 -40 -6 -40 -2 0 -2 -3 -15 -95 -4 -30 -9 -58 -11 -61 -1 -3 -6 -30 -9 -60
-3 -30 -8 -65 -10 -79 -2 -14 -7 -50 -10 -80 -3 -30 -8 -66 -10 -80 -2 -14 -7
-61 -10 -105 -4 -44 -8 -87 -10 -95 -2 -8 -6 -62 -10 -120 -4 -58 -8 -121 -10
-140 -22 -228 -22 -921 0 -1170 1 -19 6 -78 10 -130 3 -52 8 -106 10 -120 2
-14 6 -56 10 -95 3 -38 8 -86 10 -105 5 -36 12 -93 20 -165 3 -22 7 -51 10
-65 3 -14 7 -45 10 -70 3 -25 8 -58 11 -73 3 -16 7 -38 9 -50 1 -12 6 -40 10
-62 6 -36 43 -235 50 -276 40 -212 190 -789 230 -887 8 -17 12 -32 10 -32 -6
0 120 -362 173 -500 106 -275 197 -480 332 -755 121 -244 146 -291 262 -496
227 -398 504 -802 816 -1190 77 -96 148 -183 158 -194 11 -11 50 -56 89 -100
96 -110 156 -174 327 -349 80 -83 145 -152 143 -154 -2 -2 -198 -4 -437 -5
l-433 -2 0 -225 0 -226 -197 1 c-109 0 -199 -2 -199 -5 -1 -3 -2 -101 -3 -217
l-1 -213 1163 0 c640 0 1161 3 1159 8 -3 4 -8 25 -11 47 -6 36 -17 102 -31
182 -6 32 -31 188 -40 248 -22 146 -36 260 -50 400 -4 37 -15 173 -20 240 -5
66 -5 467 0 525 5 69 17 173 21 194 2 10 5 37 8 60 15 123 80 366 134 501 47
116 206 396 241 425 3 3 24 28 46 55 155 195 408 389 678 520 172 83 318 135
612 220 44 13 152 44 240 70 162 46 253 72 380 105 39 10 115 31 170 45 55 15
185 48 288 75 103 26 189 49 191 51 4 4 19 309 19 369 0 25 -10 142 -18 210
-4 33 -10 91 -20 208 -3 28 -7 73 -9 100 -3 26 -7 90 -11 142 -3 52 -8 127
-11 165 -13 162 -4 740 11 765 2 3 5 44 6 91 10 437 307 780 959 1111 63 32
111 58 105 58 -10 0 -97 15 -145 24 -14 3 -115 21 -225 41 -110 19 -211 37
-225 40 -14 3 -74 14 -135 24 -60 11 -150 28 -200 37 -49 9 -105 18 -123 20
-19 3 -50 8 -70 13 l-37 8 100 48 c55 26 127 60 160 75 244 113 329 152 390
179 39 18 77 36 85 41 8 6 22 13 30 16 8 3 62 28 120 54 58 27 139 64 180 83
41 19 124 58 184 86 59 28 110 51 112 51 2 0 64 29 139 65 75 36 138 65 140
65 1 0 49 22 106 49 151 70 210 98 444 206 116 53 216 102 223 107 6 6 12 8
12 5 0 -4 30 9 68 27 37 19 87 43 112 54 25 11 86 39 135 62 264 123 345 160
352 160 3 0 295 -291 647 -646 353 -356 892 -899 1198 -1208 306 -308 556
-562 555 -563 -1 -1 -24 3 -50 8 -26 5 -69 11 -95 15 -26 3 -50 8 -53 10 -3 1
-59 12 -125 23 -141 25 -148 26 -284 51 -58 11 -117 21 -133 24 -15 3 -54 10
-87 16 -33 5 -71 12 -85 15 -14 2 -53 9 -88 15 -34 6 -82 15 -107 20 -25 5
-61 12 -80 14 -19 3 -45 8 -56 10 -12 2 -37 7 -55 10 -19 3 -47 8 -64 11 -16
3 -55 10 -85 15 -84 15 -154 29 -185 36 -22 6 39 -35 120 -81 28 -15 187 -104
355 -197 168 -93 312 -173 320 -178 8 -5 56 -30 105 -56 50 -27 113 -60 140
-75 139 -75 751 -391 785 -406 8 -3 83 -39 165 -78 83 -40 204 -98 270 -128
125 -57 208 -95 335 -154 41 -20 154 -71 250 -115 96 -44 198 -91 227 -105
l52 -24 43 22 c125 64 187 127 322 332 58 88 73 99 96 71 32 -37 49 -37 91 1
56 50 121 77 199 80 59 3 87 0 175 -20 27 -6 44 4 150 81 301 220 820 603 972
719 51 38 129 97 173 130 45 33 86 65 93 70 7 6 68 53 137 105 69 52 132 100
140 107 8 7 85 67 170 133 85 66 162 126 170 133 8 6 35 28 60 47 62 47 484
383 490 390 3 3 52 43 110 90 149 121 497 409 524 435 6 6 54 46 106 90 52 44
135 114 183 155 l88 75 -5 60 c-4 33 -8 71 -10 85 -2 14 -7 48 -11 75 -12 95
-16 120 -36 240 -12 66 -22 133 -25 149 -27 210 -179 815 -291 1160 -68 211
-217 610 -289 771 -64 144 -95 206 -102 202 -4 -3 -40 -8 -80 -12 -39 -3 -79
-8 -89 -9 -10 -2 -54 -7 -97 -11 -43 -4 -86 -8 -96 -10 -9 -2 -50 -6 -91 -10
-41 -3 -87 -8 -104 -9 -16 -2 -64 -7 -105 -10 -41 -4 -86 -9 -100 -11 -14 -2
-59 -7 -100 -10 -41 -3 -91 -8 -110 -10 -19 -2 -69 -6 -110 -9 -41 -4 -86 -8
-100 -11 -14 -2 -65 -7 -114 -10 -50 -4 -97 -8 -105 -10 -9 -1 -59 -6 -111
-10 -52 -3 -111 -8 -130 -10 -19 -2 -73 -7 -120 -10 -47 -3 -96 -8 -110 -10
-33 -5 -225 -18 -275 -19 l-40 -1 -1 153 c0 100 4 152 10 153 6 1 31 3 56 4
46 3 144 12 235 20 28 2 86 7 130 11 44 3 96 8 115 9 19 2 69 7 110 10 41 3
91 8 110 10 19 2 69 7 110 10 41 3 95 8 120 10 25 3 70 7 100 10 63 6 159 15
210 20 19 2 67 7 105 10 39 4 86 8 105 11 19 2 64 6 100 9 36 3 81 8 100 10
37 5 97 11 190 20 49 4 90 9 185 20 17 2 62 6 100 10 39 4 81 8 95 10 29 4
150 17 166 18 7 0 10 81 10 266 l-1 266 25 1 c14 1 43 4 65 7 22 3 76 9 120
12 44 4 93 8 109 10 16 2 65 7 109 10 44 4 88 8 96 10 9 2 54 6 100 10 47 4
92 8 100 10 9 1 52 6 96 10 102 9 118 11 185 18 30 4 105 11 165 17 61 6 121
13 135 15 14 2 57 6 95 10 39 3 84 8 100 10 17 2 50 7 75 9 96 11 176 19 188
19 6 0 13 3 13 6 1 3 2 169 3 369 1 236 -2 362 -9 363 -5 1 -12 1 -15 1 -3 0
-44 -3 -90 -7 -47 -3 -103 -7 -125 -9 -22 -2 -80 -7 -130 -11 -49 -4 -106 -8
-125 -10 -19 -2 -80 -6 -135 -10 -55 -3 -111 -8 -125 -10 -14 -2 -69 -7 -123
-10 -54 -3 -117 -8 -140 -10 -23 -2 -82 -6 -132 -10 -49 -4 -110 -8 -135 -10
-25 -2 -85 -6 -135 -10 -49 -3 -112 -8 -140 -10 -27 -2 -90 -7 -140 -10 -49
-3 -121 -8 -160 -11 -38 -3 -95 -7 -125 -8 -140 -9 -269 -18 -310 -21 -25 -2
-97 -7 -160 -10 -63 -4 -137 -8 -165 -10 -27 -2 -104 -7 -170 -10 -66 -3 -132
-8 -147 -11 -24 -4 -33 4 -70 53 -63 84 -316 403 -327 413 -3 3 -31 34 -61 70
-30 36 -59 70 -65 76 -5 6 -39 44 -75 84 -178 200 -507 529 -674 675 -6 6 -47
41 -91 80 -44 38 -82 72 -85 75 -9 10 -165 137 -255 209 -49 39 -95 75 -100
79 -32 26 -290 215 -345 253 -36 24 -67 46 -70 49 -3 3 -36 26 -75 50 -38 25
-71 48 -73 52 -2 5 -10 8 -18 8 -8 0 -14 3 -14 8 0 4 -9 12 -20 17 -11 6 -74
44 -140 85 -660 410 -1337 717 -2125 963 -279 87 -872 227 -1070 253 -27 3
-53 8 -56 10 -3 1 -28 6 -55 10 -27 3 -58 8 -68 10 -30 6 -175 25 -286 39 -25
3 -60 7 -78 10 -18 2 -67 7 -110 11 -42 4 -90 8 -107 10 -16 2 -82 6 -145 9
-63 4 -126 9 -140 12 -27 6 -856 14 -861 8z m-4574 -5231 c33 -2 94 -6 135 -9
41 -2 118 -7 170 -10 379 -21 449 -25 525 -30 39 -2 124 -7 190 -10 66 -3 165
-8 220 -11 55 -2 147 -7 205 -9 58 -2 159 -7 225 -10 217 -10 334 -14 800 -30
1217 -41 3009 -50 4190 -20 393 10 654 17 745 20 58 2 177 7 265 10 314 10
450 16 743 30 144 7 261 13 422 20 74 4 160 8 190 10 30 2 109 7 175 10 66 3
153 7 193 10 92 6 191 13 317 20 55 3 123 8 150 10 28 2 103 7 168 10 l117 7
0 -156 0 -156 -42 -1 c-24 0 -54 -2 -68 -4 -26 -3 -176 -13 -310 -20 -41 -2
-112 -7 -157 -10 -143 -9 -264 -16 -523 -30 -47 -3 -130 -7 -185 -10 -232 -11
-317 -15 -435 -20 -69 -3 -168 -8 -220 -10 -52 -3 -153 -7 -225 -10 -71 -2
-195 -7 -275 -10 -267 -10 -607 -20 -990 -30 -952 -24 -2599 -24 -3550 0 -330
8 -591 16 -720 20 -74 3 -205 7 -290 10 -85 3 -209 7 -275 10 -66 3 -172 8
-235 10 -176 8 -336 15 -430 20 -47 3 -139 7 -205 10 -66 3 -154 8 -195 10
-41 2 -120 7 -175 10 -55 3 -136 7 -180 10 -44 2 -127 7 -185 10 -58 3 -127 8
-155 10 -27 2 -93 7 -145 10 -52 3 -129 8 -170 11 -41 3 -81 6 -87 7 -10 0
-12 39 -11 155 l1 154 116 -7 c64 -4 143 -9 176 -11z"/>
<path d="M20785 11803 c-174 -193 -699 -706 -1000 -978 -49 -44 -100 -91 -114
-104 -14 -12 -57 -51 -95 -85 -38 -33 -74 -65 -80 -71 -67 -62 -394 -343 -586
-505 -74 -63 -194 -163 -241 -201 -24 -20 -62 -52 -85 -70 -22 -19 -57 -47
-78 -64 -22 -16 -44 -35 -50 -41 -6 -5 -105 -86 -221 -178 -115 -92 -223 -179
-239 -192 -16 -13 -43 -34 -59 -46 -27 -20 -178 -139 -217 -171 -8 -7 -53 -41
-100 -77 -46 -36 -94 -73 -105 -82 -11 -9 -85 -66 -165 -127 -80 -61 -149
-114 -155 -119 -5 -4 -55 -42 -110 -82 -55 -41 -106 -80 -115 -87 -23 -19
-353 -265 -384 -288 -16 -11 -40 -29 -55 -41 -39 -31 -449 -331 -702 -514
-220 -160 -224 -163 -224 -199 -1 -67 39 -163 93 -223 44 -49 116 -92 135 -81
31 18 718 509 742 530 6 5 62 47 125 93 143 104 593 441 600 449 3 3 41 33 85
66 44 32 134 101 200 153 66 51 136 106 155 120 92 71 587 467 601 481 9 9 72
61 139 116 68 55 144 118 170 140 26 22 71 60 101 85 69 58 271 231 285 245 6
5 37 33 70 60 32 28 65 57 74 65 9 8 50 44 91 80 41 36 79 69 85 75 6 5 51 46
100 90 168 152 220 199 353 324 262 245 571 549 832 817 86 89 97 105 112 159
18 69 62 297 76 400 6 39 13 87 16 108 4 20 5 37 3 37 -2 -1 -30 -31 -63 -67z"/>
<path d="M10725 10794 c-78 -37 -244 -113 -315 -146 -64 -29 -85 -39 -283
-132 -55 -25 -100 -46 -102 -46 -1 0 -58 -26 -126 -59 -68 -32 -146 -68 -174
-81 -27 -12 -96 -44 -153 -71 -56 -27 -104 -49 -106 -49 -2 0 -55 -24 -117
-54 -63 -29 -136 -64 -164 -76 -27 -12 -90 -42 -140 -65 -49 -23 -115 -54
-145 -68 -233 -106 -430 -200 -427 -203 1 -2 16 -5 32 -8 166 -29 207 -36 227
-40 13 -3 41 -8 63 -11 22 -3 47 -7 55 -10 8 -2 33 -6 55 -10 22 -3 74 -12
115 -20 41 -8 89 -17 105 -20 180 -33 264 -47 285 -50 24 -3 94 -16 190 -35
25 -5 61 -12 80 -14 19 -3 46 -8 59 -11 13 -2 103 -18 200 -35 97 -17 196 -35
221 -40 25 -6 59 -12 75 -15 17 -3 41 -7 55 -9 14 -3 52 -10 85 -16 33 -5 71
-12 85 -15 14 -2 38 -6 54 -9 16 -3 52 -10 80 -15 28 -6 67 -13 86 -15 19 -3
44 -7 55 -9 11 -3 49 -9 85 -16 36 -6 128 -23 205 -36 77 -14 155 -28 174 -31
18 -3 43 -8 55 -10 11 -2 59 -11 106 -19 47 -8 108 -19 135 -25 28 -5 64 -12
80 -15 17 -3 82 -14 145 -25 63 -11 126 -22 140 -25 14 -3 75 -14 135 -24 61
-11 151 -28 200 -36 50 -9 102 -19 118 -21 15 -2 75 -13 132 -25 58 -11 110
-19 115 -17 6 2 -164 179 -376 393 -709 716 -1390 1401 -1400 1407 -5 3 -31
-5 -59 -18z m-300 -244 c-3 -5 -10 -10 -15 -10 -5 0 -107 -48 -227 -106 -215
-105 -413 -201 -688 -334 -459 -222 -558 -271 -553 -275 2 -3 27 -9 54 -15 27
-5 81 -16 119 -25 39 -8 90 -20 115 -25 25 -5 54 -11 65 -14 16 -4 178 -39
283 -61 42 -9 67 -15 182 -39 63 -14 172 -37 243 -52 70 -15 127 -31 127 -34
0 -4 -21 -3 -47 2 -27 5 -64 11 -83 13 -55 7 -84 12 -250 40 -85 14 -171 28
-190 31 -33 4 -239 40 -287 50 -43 8 -115 21 -173 30 -14 2 -34 6 -46 9 -12 3
-39 7 -60 11 -21 3 -66 11 -99 19 -33 7 -81 16 -107 19 -27 4 -48 10 -48 14 0
4 26 18 58 31 60 26 137 60 247 111 36 17 67 30 69 30 2 0 47 20 100 45 53 25
98 45 100 45 3 0 39 16 83 36 153 71 183 84 353 159 58 26 122 55 143 66 21
10 44 19 52 19 8 0 15 5 15 10 0 6 8 10 18 10 10 0 22 4 28 8 5 5 32 18 60 30
28 12 82 36 120 53 94 44 238 108 242 109 2 0 0 -4 -3 -10z m-242 -997 c-7 -2
-21 -2 -30 0 -10 3 -4 5 12 5 17 0 24 -2 18 -5z"/>
<path d="M19220 9517 c-20 -17 -63 -54 -95 -82 -33 -27 -93 -79 -135 -115 -41
-36 -100 -85 -130 -110 -30 -25 -64 -53 -75 -63 -11 -10 -51 -44 -90 -75 -38
-31 -72 -59 -75 -62 -10 -11 -77 -66 -114 -95 -21 -16 -48 -38 -60 -49 -22
-19 -341 -275 -512 -411 -56 -44 -155 -120 -219 -170 -64 -49 -143 -110 -175
-135 -142 -112 -638 -481 -925 -690 -133 -97 -255 -185 -327 -237 l-73 -53 -1
-87 c0 -49 -4 -101 -8 -117 -8 -35 -52 -122 -65 -130 -5 -4 -19 -36 -31 -71
-47 -142 -160 -230 -319 -249 -30 -4 -56 -8 -56 -9 -119 -185 -253 -293 -434
-347 -61 -19 -72 -27 -102 -68 -102 -143 -317 -344 -520 -484 -285 -198 -355
-218 -559 -163 -122 33 -142 38 -160 38 -13 1 -467 -314 -565 -391 -13 -10
-96 -66 -112 -76 -7 -4 -27 15 -53 51 -30 43 -55 66 -97 88 -137 71 -252 239
-267 390 -2 22 -5 43 -5 46 -1 3 -9 14 -19 25 -9 10 -25 31 -34 45 l-17 27
-103 -39 c-151 -58 -501 -174 -552 -183 -6 -1 -38 -10 -71 -20 -33 -10 -67
-19 -75 -21 -8 -2 -44 -11 -80 -20 -70 -18 -91 -23 -130 -31 -47 -9 -62 -16
-54 -24 5 -4 115 -72 244 -150 129 -79 372 -226 540 -328 168 -102 314 -190
325 -196 11 -6 46 -28 78 -49 31 -20 60 -37 63 -37 3 0 25 -14 49 -30 24 -16
46 -30 50 -30 3 0 11 -5 18 -10 7 -6 62 -40 122 -77 61 -36 122 -73 137 -82
14 -9 46 -28 70 -42 23 -14 149 -90 278 -169 129 -79 247 -150 262 -159 15 -9
64 -38 109 -66 45 -27 97 -59 115 -70 19 -11 93 -56 165 -100 72 -44 147 -89
165 -100 30 -18 316 -192 354 -215 160 -99 213 -130 221 -130 5 0 9 -4 9 -10
0 -5 4 -10 9 -10 5 0 40 -19 77 -42 38 -23 161 -98 274 -166 113 -69 215 -130
227 -136 13 -6 23 -14 23 -18 0 -5 4 -8 9 -8 7 0 144 -80 271 -159 72 -45 407
-247 414 -250 6 -2 15 -8 21 -13 5 -5 99 -63 208 -128 l198 -120 485 0 484 0
1 28 c3 167 -2 407 -10 411 -5 3 -93 6 -195 5 l-186 -1 0 223 0 223 -342 0
c-189 0 -385 0 -436 1 l-93 0 108 108 c155 156 286 296 403 432 30 35 73 84
95 110 22 25 56 66 75 90 19 24 50 62 68 84 52 64 56 69 87 111 16 22 32 42
36 45 9 8 189 256 266 365 79 113 256 389 329 513 27 46 57 97 68 115 142 241
357 674 476 957 29 69 58 139 66 156 65 149 224 608 291 839 82 284 185 721
217 915 12 77 19 117 22 135 3 11 13 81 24 155 11 74 23 151 26 170 3 19 7 60
9 90 3 30 7 69 10 85 6 42 17 156 30 325 17 238 29 610 18 610 -4 0 -24 -15
-43 -33z"/>
<path d="M9583 9448 c-18 -5 -33 -13 -33 -19 0 -6 19 -43 43 -82 23 -40 45
-80 49 -89 12 -29 25 -21 42 25 8 23 24 66 35 95 l19 52 -21 5 c-81 18 -106
21 -134 13z"/>
<path d="M9815 9406 c-2 -6 -29 -76 -58 -156 -46 -123 -62 -177 -92 -310 -2
-8 -10 -42 -18 -76 l-15 -61 34 -26 c18 -15 35 -27 38 -27 3 0 31 -17 63 -39
150 -101 636 -405 663 -416 24 -9 240 213 255 261 7 22 36 113 65 204 28 91
56 177 62 192 9 23 6 97 -8 179 -2 14 -6 42 -8 63 -7 50 -10 53 -59 60 -72 11
-101 16 -127 22 -14 3 -37 7 -51 9 -14 2 -75 13 -135 24 -125 23 -123 23 -309
56 -77 13 -175 31 -218 38 -57 11 -80 11 -82 3z"/>
<path d="M9360 9373 c-93 -34 -192 -73 -198 -78 -1 -1 22 -42 52 -90 30 -48
70 -115 87 -149 30 -56 42 -67 142 -134 60 -40 112 -71 114 -68 5 5 37 133 52
216 l13 65 -76 130 c-42 71 -80 132 -84 136 -4 4 -50 -9 -102 -28z"/>
<path d="M9033 9248 c-18 -6 -33 -14 -33 -18 0 -4 41 -36 92 -71 l92 -63 -24
40 c-13 21 -31 50 -40 64 -9 14 -20 33 -23 43 -7 19 -17 20 -64 5z"/>
<path d="M10877 9217 c-3 -7 -2 -19 3 -26 5 -9 9 -8 14 5 4 9 3 21 -2 26 -6 6
-12 4 -15 -5z"/>
<path d="M8814 9143 c-134 -69 -171 -90 -274 -159 -248 -166 -399 -342 -459
-537 -20 -64 -23 -89 -37 -272 -3 -44 -7 -98 -9 -120 -5 -58 -5 -508 0 -590 2
-38 7 -117 10 -175 6 -112 13 -193 20 -250 2 -19 7 -70 10 -113 4 -43 8 -86 9
-95 2 -9 7 -52 11 -94 7 -85 2 -80 100 -92 22 -3 58 -8 80 -10 22 -3 80 -8
128 -12 74 -5 92 -3 115 12 26 16 242 182 252 194 3 3 32 27 65 54 33 28 80
68 105 90 128 115 205 182 219 192 18 14 27 0 -94 145 -44 53 -94 114 -112
135 -17 21 -40 50 -52 64 -11 14 -24 30 -28 35 -5 6 -36 44 -69 85 -238 296
-456 588 -452 607 2 8 13 22 25 30 27 18 26 19 187 -194 63 -84 120 -158 125
-165 6 -7 77 -96 158 -198 124 -156 205 -256 305 -375 9 -11 33 -40 53 -65 34
-42 127 -149 150 -174 6 -6 35 -40 65 -76 30 -36 72 -83 92 -105 20 -22 45
-50 56 -63 17 -19 121 -134 200 -221 195 -214 686 -711 703 -711 5 0 58 12
117 26 59 14 114 27 122 29 59 14 295 85 340 102 8 4 17 7 20 8 40 10 325 117
385 144 11 5 70 31 130 57 272 118 593 292 938 506 157 99 196 128 169 128 -7
0 -143 72 -421 222 -325 175 -842 464 -981 547 -19 11 -42 24 -50 28 -8 4 -58
32 -110 63 -200 118 -246 145 -265 156 -31 16 -357 213 -480 289 -60 37 -157
97 -215 132 -58 35 -139 86 -180 114 -41 27 -82 52 -90 57 -8 4 -42 25 -75 46
-33 22 -98 64 -145 94 -128 83 -224 146 -230 152 -3 3 -57 39 -120 80 -63 41
-117 77 -120 80 -5 5 -212 146 -274 187 l-34 22 -88 -46z"/>
<path d="M10840 8773 l-94 -298 -118 -117 c-65 -65 -114 -118 -109 -118 5 0
16 -6 23 -12 15 -15 117 -78 124 -78 3 0 29 -15 57 -34 61 -39 377 -226 383
-226 2 0 23 -12 47 -27 23 -15 51 -32 62 -38 11 -6 119 -68 240 -137 121 -69
243 -138 270 -153 28 -15 88 -49 135 -75 196 -109 359 -199 475 -260 55 -29
106 -57 112 -63 17 -12 46 -4 140 39 124 58 204 94 263 121 30 14 78 36 105
48 130 60 215 99 265 122 122 56 209 96 283 130 69 33 95 53 67 53 -6 0 -149
69 -319 154 -284 142 -406 205 -596 306 -38 20 -115 61 -170 90 -55 29 -167
90 -250 135 -82 45 -179 98 -215 118 -36 19 -177 99 -314 176 -137 78 -253
141 -258 141 -4 0 -8 4 -8 9 0 5 -8 11 -17 14 -10 4 -38 18 -63 33 -69 40
-281 164 -315 184 -16 9 -46 27 -65 38 -19 12 -38 22 -41 22 -3 0 -48 -134
-99 -297z"/>
<path d="M15428 7627 c-43 -35 -56 -80 -53 -181 1 -48 0 -84 -4 -79 -3 5 -22
19 -41 31 -20 11 -49 33 -65 47 -55 48 -60 48 -91 7 -32 -42 -69 -85 -100
-117 -12 -12 -24 -42 -28 -71 -21 -137 -96 -204 -207 -184 -24 5 -45 7 -47 5
-6 -6 25 -70 41 -83 41 -34 200 -20 249 21 14 12 50 42 79 67 78 67 157 149
193 202 l32 47 17 -51 16 -51 -29 -37 c-37 -46 -173 -175 -244 -229 -61 -48
-142 -72 -239 -72 -49 0 -74 -5 -89 -17 -11 -9 -35 -28 -52 -42 -17 -14 -75
-59 -128 -99 -65 -49 -95 -78 -90 -86 14 -25 115 -104 170 -133 55 -29 134
-59 177 -68 11 -2 31 -6 45 -9 14 -3 47 -8 73 -12 50 -6 77 -29 77 -65 0 -36
116 -14 157 30 19 20 23 35 21 66 -3 36 -8 43 -43 63 -78 44 -155 102 -237
182 -68 64 -79 86 -56 109 21 21 45 13 93 -34 244 -234 461 -314 491 -180 15
70 13 87 -15 99 -80 34 -229 159 -275 229 -24 37 -13 68 23 68 20 0 37 -12 66
-47 22 -27 49 -55 60 -64 11 -9 31 -27 45 -39 14 -12 53 -37 87 -57 107 -60
279 -72 342 -25 21 16 60 72 61 87 0 3 0 22 0 43 0 31 5 40 30 54 34 19 48 49
54 112 l5 43 -52 2 c-181 6 -332 144 -368 336 -9 52 -7 122 7 167 4 13 -4 19
-33 27 -58 17 -95 13 -125 -12z"/>
<path d="M13595 7550 c-44 -20 -186 -86 -315 -145 -129 -59 -282 -129 -339
-156 -57 -27 -105 -49 -107 -49 -2 0 -56 -25 -119 -55 -64 -30 -120 -55 -125
-55 -30 0 -11 -22 43 -50 233 -124 295 -156 405 -212 l123 -62 545 274 c300
151 547 277 549 280 2 3 -61 34 -138 70 -78 35 -206 95 -285 132 -78 37 -146
68 -150 67 -4 0 -43 -18 -87 -39z"/>
<path d="M14199 7198 c-127 -63 -158 -83 -145 -90 17 -10 390 -148 539 -200
l87 -30 43 32 42 33 -28 56 c-15 31 -28 73 -29 93 -1 31 -6 39 -32 49 -17 7
-53 23 -81 35 -27 12 -91 40 -142 62 l-91 40 -163 -80z"/>
<path d="M14901 7192 c-43 -25 -42 -40 2 -28 20 5 53 43 45 51 -2 2 -23 -9
-47 -23z"/>
<path d="M9175 7073 c-27 -25 -97 -86 -155 -136 -58 -50 -109 -95 -115 -101
-5 -6 -44 -38 -85 -71 -41 -33 -77 -62 -80 -65 -3 -3 -29 -23 -57 -45 -29 -21
-51 -40 -49 -42 6 -6 106 -11 331 -19 l220 -6 60 32 c68 37 162 102 218 151
l37 34 -31 35 c-72 82 -87 99 -149 170 -36 41 -72 82 -80 92 -14 15 -19 13
-65 -29z"/>
<path d="M13593 6892 c-183 -92 -333 -170 -333 -174 0 -3 12 -13 28 -21 15 -7
173 -87 351 -176 359 -180 358 -180 452 -132 52 27 71 48 101 110 18 38 23 66
25 165 2 74 8 124 15 134 23 28 129 93 146 90 9 -2 31 -28 47 -58 17 -31 37
-66 46 -78 l16 -22 44 33 c71 51 72 54 41 65 -133 48 -382 139 -495 181 -75
28 -140 51 -145 51 -4 -1 -157 -76 -339 -168z"/>
<path d="M12686 6799 c-150 -101 -386 -242 -601 -359 -61 -33 -276 -143 -285
-145 -3 -1 -41 -18 -85 -39 -172 -81 -378 -166 -545 -225 -87 -30 -307 -100
-331 -105 -8 -2 -21 -6 -29 -9 -8 -3 -67 -18 -130 -32 -63 -15 -121 -29 -128
-31 -15 -4 22 -41 252 -249 6 -6 40 -35 76 -65 36 -30 68 -60 73 -67 4 -6 21
-10 40 -7 17 2 51 6 74 9 50 6 104 13 158 22 22 3 49 7 60 8 17 2 99 17 215
39 701 132 1460 415 2130 795 76 43 85 49 80 54 -3 2 -99 51 -215 109 -271
136 -467 237 -482 250 -7 6 -13 7 -13 3 0 -4 -6 -3 -12 3 -25 20 -187 102
-200 101 -7 0 -53 -27 -102 -60z"/>
<path d="M14328 6769 c-24 -18 -26 -25 -27 -102 -1 -191 -71 -316 -207 -367
-89 -33 -139 -31 -221 11 -39 20 -75 33 -80 29 -11 -11 -87 -55 -150 -87 -29
-15 -53 -33 -53 -41 0 -8 20 -42 44 -76 l43 -63 -33 -23 c-20 -13 -34 -32 -35
-44 -1 -23 -6 -89 -13 -148 -2 -21 2 -42 8 -46 11 -8 230 -99 252 -104 14 -4
91 43 98 58 2 6 -37 27 -92 49 -170 68 -169 67 -166 117 1 24 3 57 3 73 1 30
2 30 65 -35 76 -79 110 -109 174 -155 99 -70 294 -145 380 -145 25 0 32 6 45
37 16 42 10 72 -19 88 -76 41 -182 139 -233 215 -50 73 -55 89 -36 110 25 27
53 13 91 -47 43 -67 120 -144 194 -191 45 -29 64 -36 104 -35 39 0 54 5 68 23
31 38 22 62 -38 100 -60 38 -138 110 -198 183 -30 37 -37 52 -32 72 9 36 47
33 83 -7 116 -132 228 -221 267 -213 12 2 33 6 48 9 35 8 88 53 88 75 0 12
-32 36 -92 72 -50 30 -126 87 -168 126 -64 60 -77 77 -73 97 10 50 45 42 113
-24 59 -58 140 -115 216 -154 74 -37 138 -41 206 -13 41 17 54 36 60 87 7 53
-3 72 -43 77 -79 8 -170 38 -269 86 -90 44 -116 63 -190 137 -47 47 -101 113
-120 147 l-36 61 -26 -19z"/>
<path d="M9525 6714 c-16 -14 -59 -47 -95 -72 -36 -25 -69 -48 -73 -52 -4 -4
45 -8 110 -9 65 -2 144 -3 176 -4 31 -1 57 0 57 3 0 3 -33 40 -73 83 l-72 78
-30 -27z"/>
<path d="M8245 6576 c-9 -26 -15 -349 -8 -393 l5 -33 52 6 c28 4 52 8 54 9 2
2 -1 25 -5 51 -14 73 -8 221 11 293 9 36 13 68 9 72 -5 3 -31 9 -60 11 -46 4
-52 3 -58 -16z"/>
<path d="M8387 6533 c-2 -4 -8 -27 -12 -51 l-7 -43 189 6 c408 14 1008 31
1202 34 19 1 31 4 27 8 -3 4 -79 8 -169 9 -437 5 -771 17 -1128 40 -53 3 -99
2 -102 -3z"/>
<path d="M9567 6394 c-1 -1 -112 -5 -247 -8 -317 -8 -480 -13 -720 -22 -107
-4 -203 -6 -212 -6 -20 1 -32 -25 -16 -34 15 -10 171 -13 1203 -29 204 -4 376
-8 383 -10 23 -8 12 11 -38 63 l-49 51 -151 -2 c-84 -1 -152 -3 -153 -3z"/>
<path d="M8380 6225 c-5 -6 -5 -16 -1 -23 8 -13 18 -14 436 -27 236 -7 437
-14 610 -20 77 -3 223 -7 325 -10 102 -3 227 -7 278 -10 50 -2 92 0 92 4 0 4
-13 20 -30 36 -34 33 28 29 -605 39 -619 11 -958 17 -1028 20 -39 1 -72 -3
-77 -9z"/>
<path d="M8160 6064 c-96 -24 -184 -45 -195 -48 -38 -8 -390 -97 -524 -132
-73 -20 -140 -37 -150 -39 -9 -2 -122 -34 -251 -70 -129 -37 -239 -68 -245
-69 -5 -2 -36 -11 -69 -20 -32 -10 -64 -19 -70 -20 -6 -1 -51 -15 -101 -30
-461 -141 -743 -293 -972 -524 -110 -110 -122 -125 -201 -242 -124 -181 -226
-441 -268 -675 -32 -185 -39 -273 -39 -550 0 -228 6 -376 19 -480 2 -16 7 -59
11 -95 10 -92 13 -121 31 -240 16 -113 17 -120 35 -225 6 -38 13 -83 15 -100
2 -16 10 -61 18 -100 8 -38 17 -89 21 -112 l7 -43 1030 0 c977 0 1030 1 1023
18 -18 42 -123 352 -120 352 2 0 -2 15 -10 34 -22 53 -102 390 -124 521 -39
241 -46 321 -46 565 0 113 4 240 8 283 16 157 60 367 107 501 11 33 20 60 20
61 0 1 -28 20 -62 41 -64 40 -329 216 -405 269 -53 37 -62 61 -34 88 l20 21
101 -70 c55 -38 158 -106 228 -151 70 -45 132 -86 138 -92 33 -28 43 -16 113
125 146 296 343 546 611 778 209 180 422 322 722 481 21 10 36 21 34 22 -2 2
-59 5 -127 7 -118 3 -132 1 -299 -40z"/>
<path d="M8795 6090 c-57 -8 -262 -112 -480 -243 -58 -35 -249 -167 -310 -215
-222 -173 -404 -362 -546 -567 -83 -119 -197 -329 -232 -427 -5 -14 8 -26 56
-54 93 -55 127 -74 182 -104 28 -15 77 -42 110 -60 144 -79 455 -232 562 -276
21 -9 63 -27 93 -41 49 -22 347 -143 353 -143 1 0 2 82 2 182 1 164 9 340 19
393 2 11 7 40 10 65 3 25 8 56 11 70 3 14 8 41 11 60 16 88 88 331 128 429 52
126 144 309 179 356 4 5 37 53 73 105 88 126 181 235 298 348 52 51 95 96 93
100 -1 4 -22 7 -47 8 -237 6 -515 16 -519 18 -4 1 -24 0 -46 -4z"/>
<path d="M9537 6055 c-109 -80 -289 -263 -395 -400 -82 -105 -202 -293 -202
-316 0 -5 -4 -9 -10 -9 -5 0 -9 -3 -8 -7 1 -5 -14 -42 -33 -83 -96 -200 -159
-419 -203 -710 -20 -129 -27 -583 -10 -600 17 -17 512 -179 684 -224 8 -2 67
-18 130 -35 63 -17 167 -42 230 -56 63 -15 122 -28 130 -30 17 -5 212 -44 250
-51 14 -2 48 -9 75 -14 28 -5 64 -12 80 -15 17 -2 55 -9 85 -14 30 -6 73 -13
95 -16 23 -3 50 -7 61 -9 12 -2 45 -7 75 -11 30 -3 65 -8 79 -10 45 -8 161
-22 240 -30 30 -3 71 -8 90 -10 83 -10 284 -27 485 -40 248 -17 781 -23 1131
-15 72 2 136 0 142 -4 16 -10 15 -51 0 -64 -17 -13 -102 -15 -563 -15 -353 0
-572 5 -755 18 -238 17 -406 32 -555 50 -22 2 -66 7 -98 10 -32 4 -66 8 -75
10 -9 1 -42 6 -72 10 -30 4 -64 9 -75 11 -11 2 -40 6 -65 9 -25 3 -97 14 -160
25 -521 90 -993 207 -1448 360 -99 33 -182 60 -186 60 -7 0 -2 -62 15 -190 14
-102 16 -115 40 -232 11 -57 22 -113 25 -126 43 -215 157 -593 276 -912 l43
-115 3659 -3 3659 -2 -26 20 c-14 11 -27 20 -30 20 -3 0 -63 35 -134 78 -70
43 -225 137 -343 208 -118 71 -217 131 -220 134 -3 3 -18 13 -35 22 -16 10
-151 91 -298 180 -147 90 -280 170 -295 179 -45 27 -639 387 -985 598 -87 53
-170 103 -185 112 -15 9 -144 87 -287 174 -143 87 -270 163 -282 169 -13 6
-23 14 -23 19 0 4 -4 7 -10 7 -5 0 -75 41 -155 90 -80 50 -150 90 -155 90 -6
0 -10 3 -10 8 0 4 -10 12 -23 18 -12 6 -105 61 -207 124 -192 117 -531 323
-578 351 -15 9 -146 89 -292 177 -146 88 -347 210 -447 271 l-182 109 -130
-15 -129 -16 -102 88 c-57 48 -113 98 -125 109 -13 12 -65 59 -116 106 -51 47
-158 149 -238 227 l-146 142 -65 1 c-36 1 -112 3 -170 5 -394 14 -425 14 -443
0z m764 -2925 c85 -17 169 -33 188 -36 18 -3 43 -8 55 -10 80 -16 432 -69 523
-79 26 -3 64 -7 83 -10 31 -4 92 -11 185 -20 17 -2 66 -6 110 -10 44 -3 94 -8
111 -10 160 -19 919 -28 1148 -13 104 6 136 -1 136 -33 0 -25 -28 -43 -69 -45
-20 -1 -94 -5 -166 -9 -155 -8 -620 -8 -760 0 -55 3 -139 7 -186 10 -47 2
-110 6 -140 9 -30 3 -83 8 -119 11 -36 3 -81 8 -100 10 -19 3 -60 7 -90 10
-30 3 -66 7 -80 10 -14 2 -54 7 -90 10 -36 4 -74 9 -85 11 -11 2 -40 6 -65 9
-25 3 -56 7 -70 9 -14 3 -86 15 -160 27 -74 11 -144 23 -155 25 -11 2 -32 6
-46 9 -42 8 -172 34 -199 40 -14 3 -41 8 -60 11 -110 17 -143 41 -113 83 11
16 22 21 37 17 13 -3 92 -19 177 -36z m1544 -574 c39 -3 108 -9 155 -12 47 -3
101 -7 120 -9 69 -7 449 -18 663 -19 182 -1 219 -3 227 -16 12 -19 12 -31 0
-50 -8 -13 -48 -15 -262 -14 -302 1 -602 12 -783 28 -27 3 -86 8 -130 11 -84
7 -118 24 -108 53 7 19 33 43 42 38 3 -2 38 -6 76 -10z"/>
<path d="M13558 5992 c-1 -4 -24 -23 -50 -42 -41 -29 -48 -39 -49 -69 -1 -20
-3 -45 -4 -56 -3 -25 -7 -106 -6 -122 1 -7 7 -13 14 -13 6 -1 64 -23 127 -49
93 -40 119 -47 135 -38 31 16 104 71 105 78 0 4 -15 12 -32 19 -18 7 -52 21
-75 31 -24 11 -45 19 -48 19 -2 0 -29 11 -58 25 -49 22 -54 27 -51 52 11 96
13 173 5 173 -5 0 -11 -4 -13 -8z"/>
<path d="M13376 5855 c-50 -39 -48 -30 -50 -183 l-1 -63 70 -30 c39 -16 79
-34 90 -39 80 -37 91 -39 126 -17 38 24 63 46 58 51 -5 5 -79 37 -164 71 -87
36 -94 41 -90 68 7 46 16 177 12 177 -2 0 -25 -16 -51 -35z"/>
<path d="M13252 5766 c-44 -32 -44 -31 -47 -63 -13 -147 -15 -183 -12 -183 3
0 63 -24 134 -54 l130 -54 48 35 48 36 -59 23 c-32 13 -72 30 -89 38 -16 8
-49 22 -73 32 l-44 18 6 88 c3 49 8 93 11 99 11 17 -20 8 -53 -15z"/>
<path d="M13133 5683 c-48 -32 -54 -54 -38 -137 19 -94 106 -191 193 -215 34
-10 41 -8 84 22 27 17 48 34 48 37 0 3 -53 28 -117 55 -65 27 -124 53 -131 58
-12 9 -10 89 4 175 3 17 4 32 2 32 -2 0 -22 -12 -45 -27z"/>
<path d="M7171 4477 c-29 -88 -53 -186 -65 -258 -3 -19 -10 -59 -16 -89 -31
-158 -33 -566 -4 -770 13 -94 30 -202 39 -255 11 -59 77 -331 90 -370 8 -22
25 -78 38 -125 25 -84 52 -166 68 -205 5 -11 19 -49 32 -85 l24 -65 812 -3
c446 -1 811 -1 811 0 0 2 -10 28 -21 58 -59 152 -122 334 -161 460 -22 72 -77
266 -83 291 -2 9 -15 63 -29 120 -27 113 -60 274 -71 354 -4 28 -9 58 -11 68
-1 9 -8 63 -14 120 -7 56 -13 111 -14 122 -2 16 -41 36 -192 98 -202 82 -201
82 -308 128 -69 30 -536 260 -566 279 -8 5 -69 39 -135 76 -66 37 -131 74
-145 84 -53 35 -57 34 -79 -33z"/>
</g>
</svg>
