<svg xmlns="http://www.w3.org/2000/svg" xmlns:xlink="http://www.w3.org/1999/xlink" width="50" zoomAndPan="magnify" viewBox="0 0 37.5 37.499999" height="50" preserveAspectRatio="xMidYMid meet" version="1.0"><defs><clipPath id="3a061bc1da"><path d="M 6 1.476562 L 32 1.476562 L 32 8 L 6 8 Z M 6 1.476562 " clip-rule="nonzero"/></clipPath><clipPath id="e88bcb7cd2"><path d="M 23 13 L 37 13 L 37 35.976562 L 23 35.976562 Z M 23 13 " clip-rule="nonzero"/></clipPath><clipPath id="5ce3b1b55a"><path d="M 0 13 L 16 13 L 16 35.976562 L 0 35.976562 Z M 0 13 " clip-rule="nonzero"/></clipPath></defs><g clip-path="url(#3a061bc1da)"><path fill="#ffffff" d="M 26.933594 5.484375 C 26.609375 5.417969 26.296875 5.628906 26.230469 5.949219 C 26.167969 6.269531 26.375 6.585938 26.695312 6.648438 L 31.132812 7.539062 C 31.171875 7.546875 31.210938 7.550781 31.25 7.550781 C 31.335938 7.550781 31.417969 7.527344 31.496094 7.492188 C 31.523438 7.480469 31.546875 7.460938 31.570312 7.441406 C 31.609375 7.417969 31.648438 7.398438 31.679688 7.367188 C 31.691406 7.355469 31.691406 7.34375 31.703125 7.332031 C 31.707031 7.324219 31.71875 7.320312 31.726562 7.3125 C 31.757812 7.269531 31.78125 7.222656 31.800781 7.175781 C 31.800781 7.171875 31.804688 7.167969 31.804688 7.164062 C 31.832031 7.101562 31.839844 7.035156 31.839844 6.964844 C 31.839844 6.945312 31.839844 6.925781 31.835938 6.90625 C 31.832031 6.855469 31.820312 6.804688 31.804688 6.757812 C 31.796875 6.738281 31.792969 6.722656 31.785156 6.703125 C 31.78125 6.695312 31.78125 6.6875 31.773438 6.679688 L 29.65625 2.6875 C 29.5 2.398438 29.140625 2.285156 28.851562 2.441406 C 28.558594 2.59375 28.449219 2.953125 28.601562 3.246094 L 29.375 4.699219 C 25.320312 1.957031 21.148438 1.605469 19.34375 1.605469 C 12.898438 1.605469 8.585938 5.046875 7.03125 6.527344 C 6.792969 6.753906 6.78125 7.128906 7.007812 7.367188 C 7.234375 7.605469 7.613281 7.613281 7.851562 7.386719 C 9.300781 6.007812 13.328125 2.796875 19.34375 2.796875 C 21.078125 2.796875 25.152344 3.136719 29.039062 5.90625 Z M 26.933594 5.484375 " fill-opacity="1" fill-rule="nonzero"/></g><g clip-path="url(#e88bcb7cd2)"><path fill="#ffffff" d="M 36.171875 14.359375 C 36.097656 14.042969 35.773438 13.847656 35.457031 13.921875 C 35.136719 14 34.941406 14.320312 35.015625 14.640625 C 35.488281 16.585938 36.257812 21.671875 33.25 26.878906 C 32.386719 28.375 30.054688 31.730469 25.707031 33.707031 L 27.128906 32.09375 C 27.34375 31.847656 27.320312 31.472656 27.074219 31.257812 C 26.828125 31.039062 26.453125 31.0625 26.234375 31.308594 L 23.242188 34.699219 C 23.222656 34.726562 23.207031 34.753906 23.191406 34.78125 C 23.179688 34.796875 23.171875 34.808594 23.164062 34.824219 C 23.132812 34.882812 23.109375 34.949219 23.101562 35.015625 C 23.101562 35.027344 23.101562 35.042969 23.101562 35.054688 C 23.097656 35.113281 23.101562 35.171875 23.117188 35.230469 C 23.117188 35.242188 23.117188 35.25 23.121094 35.261719 C 23.121094 35.269531 23.128906 35.277344 23.132812 35.289062 C 23.136719 35.300781 23.136719 35.316406 23.144531 35.328125 C 23.152344 35.351562 23.171875 35.371094 23.183594 35.394531 C 23.195312 35.414062 23.207031 35.433594 23.21875 35.453125 C 23.242188 35.484375 23.273438 35.511719 23.304688 35.539062 C 23.320312 35.550781 23.332031 35.566406 23.347656 35.578125 C 23.394531 35.609375 23.445312 35.640625 23.503906 35.65625 C 23.507812 35.660156 23.507812 35.660156 23.511719 35.660156 C 23.5625 35.675781 23.613281 35.6875 23.667969 35.6875 L 28.191406 35.851562 C 28.199219 35.851562 28.203125 35.851562 28.210938 35.851562 C 28.53125 35.851562 28.792969 35.597656 28.804688 35.277344 C 28.820312 34.949219 28.5625 34.671875 28.234375 34.660156 L 26.585938 34.601562 C 30.992188 32.464844 33.382812 29.03125 34.28125 27.472656 C 37.503906 21.898438 36.679688 16.445312 36.171875 14.359375 Z M 36.171875 14.359375 " fill-opacity="1" fill-rule="nonzero"/></g><g clip-path="url(#5ce3b1b55a)"><path fill="#ffffff" d="M 15.144531 34.507812 C 13.222656 33.945312 8.421875 32.066406 5.414062 26.863281 C 4.546875 25.363281 2.804688 21.671875 3.265625 16.921875 L 3.953125 18.957031 C 4.035156 19.207031 4.269531 19.363281 4.515625 19.363281 C 4.578125 19.363281 4.644531 19.351562 4.707031 19.332031 C 5.015625 19.226562 5.183594 18.890625 5.078125 18.578125 L 3.632812 14.296875 C 3.625 14.265625 3.605469 14.242188 3.589844 14.214844 C 3.582031 14.195312 3.578125 14.179688 3.566406 14.164062 C 3.53125 14.109375 3.484375 14.058594 3.433594 14.015625 C 3.421875 14.007812 3.40625 14.003906 3.394531 13.996094 C 3.347656 13.964844 3.296875 13.941406 3.242188 13.921875 C 3.230469 13.921875 3.222656 13.914062 3.210938 13.910156 C 3.203125 13.90625 3.191406 13.910156 3.183594 13.90625 C 3.167969 13.90625 3.15625 13.898438 3.140625 13.898438 C 3.089844 13.890625 3.039062 13.894531 2.992188 13.902344 C 2.984375 13.902344 2.976562 13.902344 2.96875 13.902344 C 2.902344 13.914062 2.839844 13.941406 2.785156 13.972656 C 2.765625 13.980469 2.75 13.992188 2.734375 14.003906 C 2.691406 14.035156 2.652344 14.070312 2.617188 14.109375 C 2.605469 14.121094 2.59375 14.132812 2.582031 14.148438 C 2.578125 14.15625 2.570312 14.164062 2.566406 14.171875 L 0.164062 18 C -0.0117188 18.277344 0.0742188 18.644531 0.351562 18.820312 C 0.632812 18.992188 1 18.910156 1.171875 18.628906 L 2.046875 17.234375 C 1.695312 22.117188 3.480469 25.898438 4.382812 27.457031 C 7.605469 33.03125 12.746094 35.042969 14.808594 35.648438 C 14.863281 35.664062 14.917969 35.671875 14.976562 35.671875 C 15.234375 35.671875 15.46875 35.503906 15.546875 35.246094 C 15.640625 34.933594 15.460938 34.601562 15.144531 34.507812 Z M 15.144531 34.507812 " fill-opacity="1" fill-rule="nonzero"/></g></svg>