<svg xmlns="http://www.w3.org/2000/svg" xmlns:xlink="http://www.w3.org/1999/xlink" width="50" zoomAndPan="magnify" viewBox="0 0 37.5 37.499999" height="50" preserveAspectRatio="xMidYMid meet" version="1.0"><defs><clipPath id="b0c5044ccf"><path d="M 0 5 L 37.007812 5 L 37.007812 32.625 L 0 32.625 Z M 0 5 " clip-rule="nonzero"/></clipPath></defs><g clip-path="url(#b0c5044ccf)"><path fill="#ffffff" d="M 11.453125 5.441406 C 9.363281 5.886719 7.011719 6.839844 5.738281 7.792969 C 4.945312 8.363281 4.601562 8.847656 3.871094 10.367188 C 1.945312 14.363281 0.488281 20.160156 0.183594 25.023438 C 0.0390625 27.132812 0.0390625 27.152344 0.628906 27.984375 C 1.84375 29.765625 4.90625 31.488281 8.109375 32.21875 C 9.140625 32.460938 10.195312 32.625 10.460938 32.585938 C 10.785156 32.542969 11.3125 32.058594 12.019531 31.105469 C 12.648438 30.253906 13.214844 29.6875 13.4375 29.707031 C 13.621094 29.726562 14.492188 29.828125 15.363281 29.96875 C 17.390625 30.253906 20.109375 30.253906 22.136719 29.96875 C 23.007812 29.828125 23.878906 29.726562 24.0625 29.707031 C 24.285156 29.6875 24.851562 30.253906 25.480469 31.105469 C 26.1875 32.058594 26.714844 32.542969 27.039062 32.585938 C 27.304688 32.625 28.359375 32.460938 29.390625 32.21875 C 32.59375 31.488281 35.65625 29.765625 36.871094 27.984375 C 37.460938 27.152344 37.460938 27.132812 37.316406 25.0625 C 37.011719 20.160156 35.554688 14.402344 33.628906 10.367188 C 32.898438 8.847656 32.554688 8.363281 31.761719 7.792969 C 30.40625 6.800781 28.09375 5.886719 25.683594 5.382812 C 23.351562 4.914062 23.066406 4.976562 22.703125 6.070312 L 22.460938 6.761719 L 15.019531 6.761719 L 14.878906 6.210938 C 14.535156 4.9375 14.210938 4.875 11.453125 5.441406 Z M 27.972656 7.691406 C 30.164062 8.421875 31.214844 9.234375 32.007812 10.710938 C 33.769531 14.078125 35.371094 20.320312 35.695312 25.023438 L 35.835938 26.847656 L 34.785156 27.820312 C 33.546875 28.976562 31.4375 30.03125 29.1875 30.597656 L 27.566406 31.023438 L 26.917969 30.253906 C 26.554688 29.828125 26.25 29.382812 26.25 29.261719 C 26.25 29.160156 26.960938 28.753906 27.832031 28.410156 C 29.65625 27.636719 31.316406 26.484375 31.316406 25.976562 C 31.316406 25.550781 30.953125 25.125 30.566406 25.125 C 30.425781 25.125 29.816406 25.449219 29.230469 25.835938 C 27.890625 26.726562 26.085938 27.457031 23.859375 28.003906 C 21.324219 28.632812 16.175781 28.632812 13.640625 28.003906 C 11.414062 27.457031 9.609375 26.726562 8.269531 25.835938 C 7.683594 25.449219 7.074219 25.125 6.933594 25.125 C 6.546875 25.125 6.183594 25.550781 6.183594 25.976562 C 6.183594 26.484375 7.84375 27.636719 9.6875 28.410156 C 10.539062 28.753906 11.25 29.160156 11.25 29.261719 C 11.25 29.382812 10.945312 29.828125 10.582031 30.253906 L 9.933594 31.023438 L 8.3125 30.597656 C 6.0625 30.03125 3.953125 28.976562 2.714844 27.820312 L 1.683594 26.847656 L 1.804688 25.023438 C 2.148438 20.21875 3.8125 13.855469 5.59375 10.53125 C 6.0625 9.660156 6.445312 9.234375 7.257812 8.746094 C 8.554688 7.957031 10.964844 7.125 12.40625 6.941406 C 13.964844 6.761719 13.761719 7.164062 12.019531 7.691406 C 11.210938 7.9375 9.851562 8.484375 8.980469 8.929688 C 7.664062 9.597656 7.398438 9.800781 7.398438 10.226562 C 7.398438 11.160156 8.046875 11.21875 9.566406 10.46875 C 12.527344 8.988281 15.101562 8.421875 18.75 8.421875 C 22.4375 8.421875 24.445312 8.847656 27.710938 10.367188 C 29.1875 11.058594 29.535156 11.160156 29.796875 10.9375 C 29.960938 10.792969 30.101562 10.46875 30.101562 10.207031 C 30.101562 9.800781 29.816406 9.578125 28.519531 8.929688 C 27.648438 8.484375 26.289062 7.9375 25.480469 7.691406 C 24.101562 7.265625 23.859375 7.105469 24.140625 6.839844 C 24.285156 6.699219 26.351562 7.164062 27.972656 7.691406 Z M 27.972656 7.691406 " fill-opacity="1" fill-rule="nonzero"/></g><path fill="#ffffff" d="M 12.164062 16.691406 C 9.527344 17.867188 9.0625 21.660156 11.3125 23.644531 C 13.09375 25.207031 15.6875 24.496094 16.742188 22.1875 C 18.183594 19.023438 15.140625 15.375 12.164062 16.691406 Z M 14.453125 18.355469 C 15.546875 19.105469 15.8125 20.765625 15.039062 21.902344 C 14.167969 23.199219 12.789062 23.199219 11.917969 21.902344 C 10.886719 20.363281 11.835938 18.03125 13.480469 18.03125 C 13.761719 18.03125 14.210938 18.171875 14.453125 18.355469 Z M 14.453125 18.355469 " fill-opacity="1" fill-rule="nonzero"/><path fill="#ffffff" d="M 22.703125 16.691406 C 20.066406 17.867188 19.601562 21.660156 21.851562 23.644531 C 23.636719 25.207031 26.230469 24.496094 27.285156 22.1875 C 28.722656 19.023438 25.683594 15.375 22.703125 16.691406 Z M 24.992188 18.355469 C 26.085938 19.105469 26.351562 20.765625 25.582031 21.902344 C 24.710938 23.199219 23.332031 23.199219 22.460938 21.902344 C 21.425781 20.363281 22.378906 18.03125 24.019531 18.03125 C 24.304688 18.03125 24.75 18.171875 24.992188 18.355469 Z M 24.992188 18.355469 " fill-opacity="1" fill-rule="nonzero"/></svg>