<svg xmlns="http://www.w3.org/2000/svg" xmlns:xlink="http://www.w3.org/1999/xlink" width="50" zoomAndPan="magnify" viewBox="0 0 37.5 37.499999" height="50" preserveAspectRatio="xMidYMid meet" version="1.0"><defs><clipPath id="fe897cbb4d"><path d="M 0 0 L 37.007812 0 L 37.007812 37.007812 L 0 37.007812 Z M 0 0 " clip-rule="nonzero"/></clipPath></defs><path fill="#ffffff" d="M 26.378906 11.515625 L 23.1875 26.523438 C 23.03125 27.265625 22.144531 27.597656 21.53125 27.152344 L 13.933594 21.5 L 22.320312 13.917969 C 22.320312 13.917969 22.886719 13.457031 22.730469 13.316406 C 22.558594 13.140625 21.941406 13.519531 21.609375 13.742188 C 21.292969 13.964844 11.339844 20.25 11.339844 20.25 L 6.320312 18.671875 C 5.75 18.496094 5.75 17.722656 6.570312 17.375 L 25.117188 10.234375 C 25.90625 9.839844 26.554688 10.757812 26.378906 11.515625 Z M 26.378906 11.515625 " fill-opacity="1" fill-rule="nonzero"/><g clip-path="url(#fe897cbb4d)"><path fill="#ffffff" d="M 18.75 37.5 C 8.417969 37.5 0 29.097656 0 18.75 C 0 8.417969 8.417969 0 18.75 0 C 29.097656 0 37.5 8.417969 37.5 18.75 C 37.5 29.097656 29.097656 37.5 18.75 37.5 Z M 18.75 1.027344 C 8.972656 1.027344 1.027344 8.972656 1.027344 18.75 C 1.027344 28.527344 8.972656 36.472656 18.75 36.472656 C 28.527344 36.472656 36.472656 28.527344 36.472656 18.75 C 36.472656 8.972656 28.527344 1.027344 18.75 1.027344 Z M 18.75 1.027344 " fill-opacity="1" fill-rule="nonzero"/></g></svg>