<svg xmlns="http://www.w3.org/2000/svg" xmlns:xlink="http://www.w3.org/1999/xlink" width="50" zoomAndPan="magnify" viewBox="0 0 37.5 37.499999" height="50" preserveAspectRatio="xMidYMid meet" version="1.0"><defs><clipPath id="68091cb2eb"><path d="M 0 0 L 37.007812 0 L 37.007812 37.007812 L 0 37.007812 Z M 0 0 " clip-rule="nonzero"/></clipPath></defs><path fill="#ffffff" d="M 26.996094 14.628906 C 26.996094 14.628906 27.28125 20.613281 22.714844 24.308594 C 15.90625 29.839844 8.5625 25.351562 8.5625 25.351562 C 8.5625 25.351562 10.347656 25.382812 11.925781 24.957031 C 13.503906 24.53125 14.628906 23.519531 14.628906 23.519531 C 14.628906 23.519531 12.90625 23.15625 12.019531 22.507812 C 11.121094 21.863281 10.789062 20.613281 10.789062 20.613281 C 10.789062 20.613281 11.375 20.660156 11.753906 20.660156 C 12.132812 20.644531 12.589844 20.472656 12.589844 20.472656 C 12.589844 20.472656 11.355469 20.328125 10.203125 19.035156 C 9.304688 18.023438 9.367188 16.332031 9.367188 16.332031 C 9.367188 16.332031 9.902344 16.648438 10.203125 16.726562 C 10.488281 16.808594 11.042969 16.808594 11.042969 16.808594 C 11.042969 16.808594 9.96875 16.160156 9.476562 14.515625 C 9.003906 12.859375 9.921875 11.183594 9.921875 11.183594 C 9.921875 11.183594 11.5 13.109375 13.886719 14.359375 C 16.269531 15.605469 18.511719 15.558594 18.511719 15.558594 C 18.511719 15.558594 18.179688 14.5625 18.75 13.109375 C 19.320312 11.640625 20.613281 10.597656 22.574219 10.441406 C 24.53125 10.285156 25.777344 11.769531 25.777344 11.769531 C 25.777344 11.769531 26.378906 11.65625 27.074219 11.40625 C 27.769531 11.152344 28.449219 10.835938 28.449219 10.835938 C 28.449219 10.835938 28.210938 11.578125 27.738281 12.164062 C 27.265625 12.746094 26.726562 13.09375 26.726562 13.09375 C 26.726562 13.09375 27.34375 13.046875 27.960938 12.875 C 28.574219 12.699219 28.921875 12.527344 28.921875 12.527344 C 28.242188 13.726562 26.996094 14.628906 26.996094 14.628906 Z M 26.996094 14.628906 " fill-opacity="1" fill-rule="nonzero"/><g clip-path="url(#68091cb2eb)"><path fill="#ffffff" d="M 18.75 37.5 C 8.417969 37.5 0 29.097656 0 18.75 C 0 8.402344 8.417969 0 18.75 0 C 29.082031 0 37.5 8.417969 37.5 18.75 C 37.5 29.082031 29.097656 37.5 18.75 37.5 Z M 18.75 1.027344 C 8.972656 1.027344 1.027344 8.972656 1.027344 18.75 C 1.027344 28.527344 8.972656 36.472656 18.75 36.472656 C 28.527344 36.472656 36.472656 28.527344 36.472656 18.75 C 36.472656 8.972656 28.527344 1.027344 18.75 1.027344 Z M 18.75 1.027344 " fill-opacity="1" fill-rule="nonzero"/></g></svg>